<svg xmlns="http://www.w3.org/2000/svg" style="display: none;">
	<symbol id="download" viewBox="0 0 24 24">
		<path d="M12 3v12m0 0 4-4m-4 4-4-4M5 19h14" fill="none" stroke="currentColor" stroke-width="2" stroke-linecap="round" stroke-linejoin="round"/>
	</symbol>
	<symbol id="edit" viewBox="0 0 24 24">
		<path d="M12 20h9M16.5 3.5a2.1 2.1 0 0 1 3 3L7 19l-4 1 1-4 12.5-12.5Z" fill="none" stroke="currentColor" stroke-width="2" stroke-linecap="round" stroke-linejoin="round"/>
	</symbol>
	<symbol id="external-link" viewBox="0 0 24 24">
		<path d="M15 3h6v6m0-6-9 9M10 5H5a2 2 0 0 0-2 2v12a2 2 0 0 0 2 2h12a2 2 0 0 0 2-2v-5" fill="none" stroke="currentColor" stroke-width="2" stroke-linecap="round" stroke-linejoin="round"/>
	</symbol>
	<symbol id="filter" viewBox="0 0 24 24">
		<path d="M4 5h16l-6 7v5l-4 2v-7L4 5Z" fill="none" stroke="currentColor" stroke-width="2" stroke-linecap="round" stroke-linejoin="round"/>
	</symbol>
	<symbol id="search" viewBox="0 0 24 24">
		<path d="m21 21-4.3-4.3M10.5 18a7.5 7.5 0 1 1 0-15 7.5 7.5 0 0 1 0 15Z" fill="none" stroke="currentColor" stroke-width="2" stroke-linecap="round" stroke-linejoin="round"/>
	</symbol>
	<symbol id="trash-2" viewBox="0 0 24 24">
		<path d="M3 6h18M8 6V4h8v2m-1 5v6M9 11v6M5 6l1 15h12l1-15" fill="none" stroke="currentColor" stroke-width="2" stroke-linecap="round" stroke-linejoin="round"/>
	</symbol>
	<symbol id="x" viewBox="0 0 24 24">
		<path d="M18 6 6 18M6 6l12 12" fill="none" stroke="currentColor" stroke-width="2" stroke-linecap="round" stroke-linejoin="round"/>
	</symbol>
</svg>
